<svg version="1" xmlns="http://www.w3.org/2000/svg" width="800pt" height="800pt" viewBox="0 0 800.000000 800.000000"><path d="M361.3 1.5c-75 6.8-143.5 33.2-203.8 78.5-27.8 20.9-55.8 48.8-77.1 77-53.2 70.1-80.4 152.4-80.4 243s26.8 171.6 80 242.5c20.9 27.8 48.8 55.8 77 77.1 70.1 53.2 152.4 80.4 243 80.4 111.2 0 209.6-40.9 286.7-119.1 15.1-15.4 21.7-23.1 33.3-38.4 53.2-70.9 80-152 80-242.5 0-111.2-40.9-209.6-119.1-286.7-15.4-15.1-23.1-21.7-38.4-33.3-60.7-45.6-129.1-71.8-204.6-78.5-20.7-1.8-56.6-1.8-76.6 0zm71.1 36.5c45.4 3.8 87.9 15.4 128.1 35 38.7 18.9 66.5 38.8 98.1 70.4 28.3 28.3 49 57 66.8 92.6 18.4 36.9 28.9 71.5 35.1 116.5 2.1 14.8 3 60.2 1.6 77.7-3.8 47.6-15.2 89.7-35.6 131.3-18.7 38.2-38.6 65.8-69.9 97.1-29.2 29.2-57.7 49.5-95.1 67.9-40.8 20-83.3 31.7-129.1 35.5-15.3 1.2-49.5 1.2-64.8 0-64.8-5.4-126.8-27.9-179-65-23.6-16.7-51.4-42.6-69.2-64.1-37.1-45-63.6-99.9-74.8-154.9-6.3-31-8-52.4-7.3-88 1.3-57.5 12.8-104.9 37.3-154 17.8-35.6 38.5-64.3 66.8-92.6 31.3-31.3 58.9-51.2 97.1-69.9 40.2-19.7 84-31.8 128-35.5 13.6-1.1 52.4-1.1 65.9 0zM333.5 76.7c2.2.8 11.7 3.4 21.1 5.8 9.6 2.4 19.7 5.6 23.2 7.4 7.1 3.6 16.1 12.1 21.5 20.3 2.6 4 4.5 5.8 6.5 6.2 3.4.7 16.2 2.6 18.1 2.6.9 0 1.2.9.8 3.2-.5 3.1 0 3.8 6.9 10 11.3 10.3 24.9 18.7 53.1 33.2 14.2 7.2 29.8 15.7 34.7 18.9 4.8 3.2 9 5.7 9.2 5.5.2-.2-3.6-6-8.4-12.8-10-14.4-19.9-24.9-29.3-30.9-4.9-3.1-7.8-5.9-11.2-10.9-17.3-25.3-51.3-45.3-92.8-54.6-14.8-3.3-34.6-5.6-47.4-5.5h-10l4 1.6zM292.5 112.5c-17.9 3.4-34.6 7.9-45.5 12.2-10.6 4.1-30.9 14.6-42.9 22.1-6.2 3.9-13.6 7.8-16.4 8.8-2.9.9-11.5 4.7-19.2 8.4-26.4 12.7-41.7 27.8-54 53.2l-4.2 8.8 3.6-2.2c6.2-3.7 13.3-9 21.1-15.6 18.3-15.5 42.7-28.2 71.2-36.8 48.6-14.7 74-18.6 105.6-16.3 12.1.9 15.9.8 25.3-.7 15.1-2.3 26.5-1.6 38.7 2.4 10.8 3.5 11.4 3.4 24.4-3.6 4-2.2 9.2-4.6 11.6-5.2 2.6-.6 4.2-1.6 3.9-2.3-.4-1.4-32.9-18.9-46-24.8-27.7-12.5-46.1-14.5-77.2-8.4zM589.5 113.8c8.5 4.3 20.7 14 26.6 21.3 37.4 45.7 53.9 140.8 47.2 271.3-.5 11.4-.8 12.6-1.9 10.3-1.5-2.7-3.8-15.2-4.9-25.7-.3-3.6-1.5-9.7-2.5-13.5-1-3.9-2.2-8.2-2.5-9.8-.3-1.7-1.2-2.7-2.4-2.7-1.5 0-1.9 1.5-2.9 10.7-1.3 11.8-2.5 16.9-4.5 19.7-1.2 1.6-1.8 1-6.1-6.4-6-10.4-13-17.3-16.6-16.5-5.5 1.3-11.9 8.9-12 14.2 0 1.3-.4 2.3-1 2.3-1.1 0-2.4-4.6-4-14-1.5-8.8-4.6-18.1-8.8-26.5-3.4-6.8-10.8-18.5-11.7-18.5-2.1 0-25.1-5.4-27.7-6.4-5.3-2.2-7.2-5.1-14.7-22-8-18-8.2-20.4-2.5-23.8 3-1.8 3.4-2.5 3.4-6.2 0-13.2-16.2-42.5-32.4-58.8-5.9-5.9-16.6-13.1-16.6-11.2 0 .3 1.5 2.4 3.4 4.7 5.6 6.8 11.2 18.2 20.5 41.8l8.9 22.3-4.4 7.5c-2.7 4.6-4.4 8.8-4.4 10.7 0 1.8 1.6 9.3 3.5 16.7 7 27.5 7 32.4-.5 42.1-8.4 10.9-14.6 25.7-19.5 46.6-3.8 15.9-5.4 18.5-13.3 22-4.8 2.2-6.3 4.7-8.2 14.8-1.5 7.2-5.1 12.9-10.8 16.7-8.6 5.7-10.7 15.6-7.7 35.5 2.8 18.5 2.7 18.7-5.7 10.7-7.7-7.4-9.5-11.3-10.9-24.3-1.2-11.5-4.6-24.8-8.1-32.4-1.2-2.5-5-7.1-8.6-10.5-3.6-3.3-10.8-10.2-16-15.3-5.3-5.1-10.4-9.8-11.4-10.3-2.2-1.2-10.8-1.4-16.3-.3l-3.8.7 5.9 2.7c8 3.7 11.3 7.4 12.3 13.8.4 2.8 1.3 5.8 2 6.6.7.8 5 3.3 9.6 5.5 19 9.2 23.4 24.9 16.4 58.1-6.5 31.2-6.3 29.6-3.9 33.5 2.5 4.1 3.7 4.8 10.8 6.5 6.6 1.5 11.5 1.5 15.3 0 4-1.7 5.4-.3 6.9 7.3.6 3.4 1.8 7.6 2.5 9.4 1.2 2.8 1.9 3.2 5.5 3.5l4.2.3 3.4 8.5c1.9 4.7 4.4 9.4 5.7 10.6 1.2 1.2 6.8 3.3 12.7 5 12.5 3.5 21.2 3.8 25.5 1l2.9-1.9-6.2-1.9c-3.3-1-8-3.3-10.3-5.1-4.5-3.5-8.9-10.1-7.6-11.4.5-.4 4.3-1 8.6-1.3 5.8-.5 8.5-1.2 10.9-2.9 3.7-2.6 3.4-4.1-.9-4.1-3.6 0-13.3-3.2-21.5-7.1l-6.2-2.9.3-8.8c.2-10 2-14.2 6.1-14.2 3.3 0 3-2.3-.6-5.4-3-2.5-3.1-2.5-.8-3 12.1-2.3 13.5-2.8 17.3-6.2l4-3.5-3.1.6c-3.6.7-9.7-1.5-13-4.6-2-1.9-2.1-2.4-.9-6.7 3.7-13.9 9.1-21.3 30.7-42.1l15.4-15 2.4-11.3c2.6-13.2 5.9-20.8 10.2-24 6.6-5 8.4-7.6 10.6-15.1 2.9-9.8 4.4-11.1 6.5-5.5 5.6 14.8 5.9 19.6 1.7 36.5-1.7 6.7-3.7 15.7-4.4 19.9-1.3 7.4-1.3 7.8 1.1 13 5.5 12.1 9.3 34.4 9.3 55.5v8.7l-3.1.6c-1.7.3-4.2.6-5.5.6-3.1 0-3 1.5.2 4.7 3.3 3.3 2.5 5.1-2.6 5.9-5.3.9-5.3 3.3.3 7 2.3 1.5 4.4 3 4.6 3.1.3.2-.8 1.6-2.3 3.2-2.3 2.4-4 3.1-9.1 3.6-3.4.4-9.4.3-13.3-.2l-7.2-.9 1.8 3c3.2 5.5 15.8 10.9 30.9 13.1 3.3.5 4.2 1.1 4.5 2.8.2 1.2 1.9 3.2 3.8 4.5 2.6 1.7 3.8 3.5 4.7 6.9.6 2.5 2.6 6.5 4.3 8.9 3.5 5 3.4 7.3-.7 9.5-1.9 1-6.5 1.4-17.5 1.3l-14.8-.1 4.7 3.4c13.4 9.5 27.9 11.5 45.5 6.3l7.6-2.2 3.1 2.3c2 1.5 4.9 2.4 8.8 2.7 6.6.5 9.1 2.2 11.8 8.2 1.8 3.9 1.8 3.9 6.4 3.3 5.2-.6 12.3-3.7 14.8-6.5 1.5-1.6 1.4-2.4-.7-10.4l-2.3-8.6 2.2-9.2c1.4-5.8 2.3-13.6 2.6-21.6.7-19.7 5.1-39.2 15.1-66.7 6.4-17.8 13.4-32.7 25.6-54.8 24.3-43.9 29.1-57.4 27.3-77.3-1.1-12-1.2-27-.1-31.1l.8-3.4-3.4 2.6c-4.8 3.7-7.6 9.9-9.9 22.4-2.5 13.1-4.1 19.1-8.6 30.8-4.1 10.6-12.1 26.5-13.4 26.5-1.4 0-1.2-1.2 3.5-24.3 2.5-11.9 4.8-25.1 5.1-29.4 1.1-12.4-2.6-45.6-9.9-87.3-2.9-16.7-3.5-14.8-4 13-.4 20.9-1 24.5-6.8 39.2-5.6 14.1-6 11.8-6.3-33.7-.3-48.2-1.3-54.9-11.9-81.8-10.2-26.2-23.6-47.9-38.6-62.7-13.2-13-24-19.1-36.8-20.6l-4.7-.6 8 4zm44.1 303.8c9.7 6.4 6.9 20.3-9.8 48.5-5 8.6-5.3 8.8-7.1 7.1-6.7-5.9-6.1-21.4 1.4-38.1 3.2-7 10.9-19.1 12.2-19.1.4 0 1.9.7 3.3 1.6zM583.5 125.1c2.5 3.4 7.1 11.5 10.2 17.8 6.6 13.8 19.3 43.1 18.7 43.1-.3 0-1.5-.7-2.9-1.6-2.2-1.4-2.7-1.4-6.4.5l-4 2.1 2.4 5.2c3 6.5 3.1 9.9.4 12.4-1.8 1.7-2 2.6-1.4 7.9.6 5.6.4 6.3-2.7 10.9-2.9 4.5-3.2 5.7-3.3 13-.1 9.4-1.8 13.8-8.9 23.4l-4.6 6.2 3.9 7.9c4.6 9.4 7.4 14.2 16.4 28.6 12.9 20.5 35.9 49.5 39.3 49.5 4.7 0 7.1-20.7 5.5-46-4.2-64.1-21-128.9-41.8-161.8-5.5-8.7-12.4-16.2-19.2-21l-6.2-4.3 4.6 6.2zM492.5 122.8c.6.5 5.6 4.6 11.1 9 12.8 10.2 19.1 18.7 25.9 35.2 1.8 4.2 4.6 8.5 8.1 12.2 6.6 6.9 7.1 8.3 8.3 20.9 1.2 12.2 2.6 15 15 28.3 6.6 7.2 9.6 11.3 11.6 16.1 1.6 3.6 3.1 6.5 3.4 6.5 1.5-.1 4.8-3.8 6-6.8 3.2-7.7-2.3-35.6-8.3-42.2-2-2.2-4.9-7.8-7.4-14.4-5-12.7-9-18.2-24.9-33.7-11.5-11.2-19.8-17.6-31.3-23.9-7.1-3.9-19.4-9-17.5-7.2zM255.5 179.4c-15.3 5-33.6 13.5-54 25.1-10.3 5.9-16.8 8.7-34 15-16.1 5.8-26.8 14.7-42.7 35.5-19.8 25.9-31.1 45.5-37.2 64.6-1.9 6.1-4.4 13.5-5.6 16.3-3.2 8.1-7.8 26.7-9.5 38.1-5.5 36.9-3.8 58.1 8.4 106.9 12.8 51 33.6 96.3 54.4 118.7 3.6 3.8 6.8 6.6 7.2 6.2.4-.3-4.5-16.3-10.9-35.5-18.9-57.2-27.4-90.1-28.3-110.5-1.1-21.7 4.1-61.9 11.4-88.8 12.9-47.7 29.7-79.8 50-95.9 4.6-3.7 13.3-8.7 13.3-7.7 0 .3-1.8 3.3-4 6.7-6.9 10.8-11.1 25.1-9.4 32.2l.9 3.7 4.8-7.9c14.9-24.5 39.1-40.9 79.7-53.7 28.1-8.8 46.4-12.4 64.3-12.4 29.5 0 49.4 10 80.3 40.5 12.5 12.3 13.5 13 37.6 25.9 18.9 10.1 30.2 20.7 37.2 35.1 5.4 11 6.9 18.1 7.5 35.9l.6 16 5.3-8.6c12.4-20.3 17.3-35 17.3-51.8 0-14.4-3.7-27.9-13-47.5-12.5-26.2-23.9-43.8-37.8-57.8-18.6-18.8-40.2-29.9-69.3-35.7-19.4-3.8-51.4-2.5-72.5 2.9-9 2.4-23.9 4.4-29 3.9l-4-.3-.1-6c0-8.2-.8-10.1-4.6-10.9-4.7-.9-6.8-.7-14.3 1.8zM281.5 264.7c-31.2 2.8-63.1 19.2-87.5 45-5.1 5.4-15.4 17.4-22.7 26.6-7.4 9.2-14 16.6-14.6 16.4-1.9-.6-2-7.9-.3-19.3.9-5.7 1.6-11.2 1.6-12.2-.2-6.9-16.1 27.2-22.6 48.2-12.6 41-13.3 83.1-2 117.1 7.5 22.1 23.2 54.2 36.2 73.5 7.5 11.1 9 13.1 12.6 15.4 2.5 1.7 2.5 1.5-2.4-12.6-9.4-27.2-19.2-63.4-21.9-81.3-2-13.5-1.5-26.2 2-47.4 1.8-10.7 3.9-20.8 4.7-22.3 2.7-5.2 13.3-14.3 14.8-12.7.3.2-.3 5.2-1.1 10.9-1.2 7.5-1.7 18.1-1.7 37-.1 28.8.8 36.3 6 49 1.3 3.3 2.4 7.9 2.4 10.2 0 4.1 1.1 7.4 9.4 30.2 2 5.4 5.7 17.5 8.1 26.8 6.6 25 13.3 40.3 23.8 54.3 10.6 14.2 30.1 27 47.6 31.4l7.4 1.8-11.3 1.3c-16.8 1.8-25.5-.1-45-10.1-26.7-13.6-64.8-46-73.7-62.4-3.9-7.2-4.2-5.6-.8 4.6 11.1 33.2 44.4 69.8 79 86.7 16.5 8.1 29.5 11.7 46.5 12.8l10.5.7 21-5.7c26.4-7 36.9-9.1 52.1-10.6 13.7-1.3 27.3-.2 37.8 3.1 14 4.3 27.7 15.9 34.8 29.5 5.8 11 14.8 18.2 21.4 16.9 4.7-.8 4.9-2 1.1-4.4-4.5-2.8-5.7-5.8-5.7-14.4 0-5.9-.5-8.3-2.9-13.2-3.9-8.2-13.1-21.4-18.2-26-12.4-11.2-37.5-15.9-81.9-15.3l-21.5.3-9.5-3.3c-12.8-4.4-21.9-10.1-31.6-19.7-19.1-19-32.2-45.9-43.6-89.5-4.9-18.6-4.8-22.7.7-40.6 2.1-6.6 3.9-15 4.2-18.9.5-6.3.2-8-2.6-15-1.8-4.4-5.7-12.4-8.8-17.8-3-5.4-7.2-13.5-9.2-18-3.3-7.5-3.6-9-3.6-17.2.1-6.2.6-10.4 1.9-13.5 2.6-6.7 3.4-10.4 4.6-22.5.6-6.1 1.6-12.8 2.1-15 1.5-5.6 10.5-14 29.4-27.5l15.7-11.1 13.7.7c15.6.8 15.6.8 27.6-8 18.6-13.6 26-16.6 41.3-16.6 9 0 13.6 1.4 16.9 5.3 1.9 2.3 6 4.6 13.3 7.7 5.8 2.4 21.2 9.7 34.4 16.2 13.1 6.5 24.1 11.7 24.3 11.4.2-.2-.2-2-1.1-3.9-2.5-6.2-8.6-11-22.7-18.2-7.7-3.9-15.3-8.6-17.9-10.9-13.7-12.7-36.2-23.5-59.1-28.4-9.1-2-17.7-3.1-42-5.2-11.4-1-13.5-1-21.4-.3zM349.7 316.1c-6 1.4-11.4 4.6-16.8 9.9-6.8 6.6-9.5 7.3-20.5 4.8-11.6-2.5-26.7-2.7-35.3-.4-13.7 3.7-22.8 10.1-30.5 21.3-20.2 29.7-12.6 77.6 17.1 106.8 7.8 7.6 13.4 10.9 17.2 10 4.6-1 8.2-5.4 16.2-20.3 8.8-16.3 12.3-21.5 20.2-30.4 14.4-16.5 34.8-27 60.9-31.7 6.2-1.1 15.8-2.2 21.3-2.3l10-.3 8.6 4.7c5 2.8 10.4 6.7 13.1 9.6 3.9 4.2 5.1 6.6 9.2 18.7 2.6 7.9 6.6 17.4 9.2 21.7 4.3 7.6 4.6 7.8 8.3 7.8h3.8l1.7-8.3c.8-4.5 2.3-10.7 3.2-13.7 2.1-7.4 1.3-19-2-29.9-1.4-4.7-2.6-10.6-2.6-13.3 0-7.7-2.8-18.1-6.6-24.5-7.1-12.1-19.4-20.6-37.9-26.1-5.5-1.6-16.5-5-24.5-7.5-22.5-7-34-8.8-43.3-6.6zM340.3 686.8c6.4 6.8 17.6 9.5 41.2 9.6 9.9 0 19.8-.3 22-.8 3.9-.8 3.7-.9-11.5-5.8l-15.5-5.1-19.2-.1-19.2-.1 2.2 2.3z"/></svg>